<svg aria-hidden="true" style="position: absolute; width: 0; height: 0; overflow: hidden;" version="1.1" xmlns="http://www.w3.org/2000/svg" xmlns:xlink="http://www.w3.org/1999/xlink">
<defs>
<symbol id="icon-vector-button" viewBox="0 0 22 32">
<path stroke-linejoin="round" stroke-linecap="round" stroke-miterlimit="4" stroke-width="6.4" d="M3.2 3.2l15.84 12.8-15.84 12.8"></path>
</symbol>
<symbol id="icon-facebook" viewBox="0 0 14 32">
<path fill="#fcfcfc" style="fill: var(--color1, #fcfcfc)" d="M13.513 15.879h-4.176v15.393h-6.327v-15.393h-3.009v-5.41h3.009v-3.501c0-2.503 1.182-6.424 6.384-6.424l4.687 0.020v5.251h-3.401c-0.558 0-1.342 0.28-1.342 1.475v3.184h4.729l-0.553 5.405z"></path>
</symbol>
<symbol id="icon-telegram" viewBox="0 0 40 32">
<path fill="#fff" style="fill: var(--color2, #fff)" d="M16.205 20.638l-0.635 8.341c0.909 0 1.302-0.364 1.774-0.802l4.261-3.801 8.829 6.036c1.619 0.843 2.76 0.399 3.197-1.391l5.797-25.352c0.514-2.235-0.866-3.108-2.443-2.56l-34.065 12.175c-2.325 0.842-2.29 2.052-0.395 2.601l8.709 2.529 20.229-11.817c0.952-0.589 1.818-0.263 1.106 0.326l-16.364 13.717z"></path>
</symbol>
<symbol id="icon-git" viewBox="0 0 32 32">
<path fill="#fcfcfc" style="fill: var(--color1, #fcfcfc)" d="M15.999 0.847c-8.271 0-15.059 6.789-15.059 15.062 0 7.060 4.953 13.473 11.529 15.062v-4.983c-0.652 0.143-1.251 0.147-1.915-0.049-0.89-0.263-1.613-0.856-2.15-1.76-0.342-0.577-0.949-1.203-1.581-1.157l-0.155-1.758c1.368-0.117 2.551 0.834 3.254 2.014 0.312 0.525 0.671 0.833 1.132 0.969 0.446 0.131 0.924 0.068 1.481-0.129 0.14-1.116 0.651-1.534 1.037-2.123v-0.001c-3.922-0.585-5.486-2.667-6.106-4.309-0.822-2.181-0.381-4.907 1.073-6.629 0.028-0.034 0.079-0.121 0.059-0.183-0.667-2.014 0.146-3.68 0.176-3.857 0.769 0.228 0.894-0.229 3.342 1.258l0.423 0.254c0.177 0.105 0.121 0.045 0.298 0.032 1.022-0.278 2.099-0.431 3.16-0.445 1.069 0.014 2.14 0.167 3.204 0.456l0.137 0.014c-0.012-0.002 0.037-0.009 0.12-0.058 3.057-1.852 2.947-1.247 3.767-1.513 0.030 0.177 0.831 1.87 0.172 3.859-0.089 0.274 2.651 2.783 1.132 6.811-0.62 1.644-2.183 3.725-6.106 4.31v0.001c0.503 0.767 1.107 1.174 1.104 2.756v6.22c6.577-1.589 11.529-8.003 11.529-15.062 0-8.273-6.788-15.062-15.059-15.062v0z"></path>
</symbol>
<symbol id="icon-ice-cream" viewBox="0 0 31 32">
<path d="M0 0.281h31.135v31.143h-31.135v-31.143z"></path>
</symbol>
<symbol id="icon-cow" viewBox="0 0 31 32">
<path d="M15.568 0.2c8.598 0 15.568 6.97 15.568 15.568v0.008c0 8.598-6.97 15.568-15.568 15.568s-15.568-6.97-15.568-15.568v-0.008c0-8.598 6.97-15.568 15.568-15.568z"></path>
</symbol>
<symbol id="icon-weight" viewBox="0 0 31 32">
<path d="M0 0.241h31.135v31.143h-31.135v-31.143z"></path>
</symbol>
<symbol id="icon-Arrow" viewBox="0 0 82 32">
<path d="M81.414 17.414c0.781-0.781 0.781-2.047 0-2.828l-12.728-12.728c-0.781-0.781-2.047-0.781-2.828 0s-0.781 2.047 0 2.828l11.314 11.314-11.314 11.314c-0.781 0.781-0.781 2.047 0 2.828s2.047 0.781 2.828 0l12.728-12.728zM0 18h80v-4h-80v4z"></path>
</symbol>
<symbol id="icon-close-btn" viewBox="0 0 32 32">
<path d="M23.884 6.706l-7.884 7.884-7.884-7.884c-0.19-0.174-0.439-0.267-0.696-0.261s-0.502 0.11-0.684 0.292c-0.182 0.182-0.286 0.427-0.292 0.684s0.088 0.506 0.261 0.696l7.88 7.884-7.882 7.882c-0.096 0.092-0.173 0.202-0.226 0.324s-0.081 0.253-0.083 0.386 0.023 0.265 0.073 0.388c0.050 0.123 0.124 0.235 0.218 0.329s0.206 0.169 0.329 0.219 0.255 0.075 0.388 0.074c0.133-0.002 0.264-0.029 0.386-0.082s0.232-0.13 0.324-0.226l7.886-7.882 7.884 7.884c0.19 0.174 0.439 0.267 0.696 0.262s0.502-0.11 0.684-0.292c0.182-0.182 0.286-0.427 0.292-0.684s-0.088-0.506-0.262-0.696l-7.884-7.884 7.884-7.886c0.096-0.092 0.173-0.202 0.226-0.324s0.081-0.253 0.083-0.386c0.002-0.133-0.023-0.265-0.073-0.388s-0.124-0.235-0.218-0.329c-0.094-0.094-0.206-0.169-0.329-0.219s-0.255-0.075-0.388-0.074-0.264 0.029-0.386 0.082c-0.122 0.053-0.232 0.13-0.324 0.226v0.002z"></path>
</symbol>
<symbol id="icon-Burger" viewBox="0 0 32 32">
<path fill="none" stroke="#fff" style="stroke: var(--color2, #fff)" stroke-linejoin="miter" stroke-linecap="round" stroke-miterlimit="4" stroke-width="2" d="M6 10h20"></path>
<path fill="none" stroke="#fff" style="stroke: var(--color2, #fff)" stroke-linejoin="miter" stroke-linecap="round" stroke-miterlimit="4" stroke-width="2" d="M6 16h20"></path>
<path fill="none" stroke="#fff" style="stroke: var(--color2, #fff)" stroke-linejoin="miter" stroke-linecap="round" stroke-miterlimit="4" stroke-width="2" d="M6 22h20"></path>
</symbol>
<symbol id="icon-logo" viewBox="0 0 34 32">
<path fill="#f8d24e" style="fill: var(--color3, #f8d24e)" d="M17.413 14.169c1.635-4.384-1.751-6.784-3.995-8.362-0.429-0.322-0.858-0.623-1.206-0.899-0.621-0.518-1.079-1.201-1.318-1.969s-0.251-1.587-0.033-2.361c0.022-0.081 0.022-0.166-0.002-0.247s-0.069-0.153-0.131-0.21-0.14-0.096-0.223-0.112c-0.083-0.017-0.169-0.010-0.249 0.018-0.756 0.295-1.458 0.709-2.081 1.225-0.598 0.456-1.083 1.041-1.417 1.711s-0.508 1.406-0.51 2.152c-0.423 0.33-0.797 0.716-1.111 1.149-0.577 0.778-0.866 1.729-0.819 2.693-0.687 0.624-1.199 1.413-1.486 2.291s-0.338 1.814-0.149 2.717c-0.273 0.163-0.485 0.411-0.602 0.704s-0.134 0.617-0.047 0.921c0.087 0.304 0.272 0.571 0.527 0.761s0.567 0.291 0.886 0.289h0.030v2.493c0 0.253 0.102 0.496 0.283 0.675s0.427 0.279 0.683 0.279h0.751l1.223 10.473c0.025 0.233 0.137 0.449 0.314 0.605s0.406 0.243 0.643 0.243h5.089c0.237-0.001 0.466-0.087 0.644-0.244s0.29-0.372 0.317-0.605l1.223-10.473h0.751c0.256 0 0.502-0.1 0.683-0.279s0.283-0.422 0.283-0.675v-2.493h0.030c0.388 0 0.76-0.152 1.035-0.423s0.428-0.639 0.428-1.022c0.002-0.191-0.035-0.381-0.109-0.558s-0.183-0.338-0.32-0.472l-0.013 0.004zM6.399 6.214c0.618 2.294 3.003 3.197 5.179 4.003 0.059 0.036 0.124 0.058 0.192 0.066s0.137 0 0.202-0.021c0.065-0.022 0.124-0.057 0.174-0.104s0.088-0.104 0.113-0.168c0.025-0.063 0.035-0.131 0.030-0.199s-0.025-0.133-0.058-0.193c-0.034-0.059-0.080-0.11-0.136-0.15s-0.12-0.066-0.187-0.079c-2.343-0.878-4.552-1.696-4.72-4.041-0.039-0.645 0.083-1.289 0.356-1.875s0.689-1.097 1.21-1.487c0.326-0.268 0.677-0.507 1.047-0.712-0.024 0.294-0.024 0.588 0 0.882 0.050 0.672 0.236 1.327 0.547 1.927s0.741 1.131 1.264 1.563c0.356 0.301 0.798 0.611 1.287 0.941 1.128 0.801 2.411 1.696 3.226 2.909 0.435 0.622 0.706 1.341 0.787 2.093s-0.028 1.512-0.32 2.211h-1.896c-3.909 0-8.401-1.069-9.289-4.062-0.176-0.616-0.175-1.268 0.004-1.883s0.528-1.169 1.008-1.598l-0.021-0.021zM9.917 20.669l1.433 1.416-1.433 1.416-1.433-1.425 1.433-1.408zM13.204 24.388l-1.184 1.17-1.433-1.416 1.433-1.412 1.244 1.225-0.060 0.433zM9.917 27.636l-1.433-1.416 1.433-1.416 1.433 1.416-1.433 1.416zM9.261 24.15l-1.433 1.416-1.193-1.179-0.051-0.424 1.244-1.225 1.433 1.412zM7.167 26.219l-0.287 0.284-0.073-0.644 0.36 0.36zM7.017 27.67l0.811-0.801 1.575 1.569c0.008 0.032 0.018 0.063 0.030 0.093h-2.317l-0.099-0.861zM12.011 26.868l0.811 0.801-0.099 0.848h-2.381l1.669-1.649zM12.955 26.504l-0.287-0.284 0.365-0.36-0.077 0.644zM13.384 22.798l-0.716-0.721 0.91-0.899-0.193 1.62zM12.007 21.432l-1.36-1.34h2.72l-1.36 1.34zM7.823 21.432l-1.36-1.34h2.72l-1.36 1.34zM12.457 30.489h-5.084c-0.008-0.001-0.015-0.004-0.020-0.010s-0.009-0.012-0.010-0.020l-0.12-1.018h5.389l-0.116 1.018c-0.001 0.008-0.005 0.016-0.011 0.021s-0.014 0.008-0.023 0.008h-0.004zM16.391 15.716h-1.493c-0.065-0.006-0.13 0.001-0.192 0.021s-0.119 0.053-0.167 0.097c-0.048 0.043-0.087 0.096-0.113 0.155s-0.040 0.123-0.040 0.187 0.014 0.128 0.040 0.187c0.026 0.059 0.065 0.112 0.113 0.155s0.105 0.076 0.167 0.096 0.127 0.028 0.192 0.021h0.532v2.493c-0.001 0.008-0.005 0.016-0.011 0.021s-0.014 0.008-0.023 0.008h-10.971c-0.008 0-0.017-0.003-0.023-0.008s-0.010-0.013-0.011-0.021v-2.493h8.5c0.116-0.011 0.223-0.064 0.301-0.149s0.122-0.196 0.122-0.311-0.043-0.226-0.122-0.311c-0.078-0.085-0.186-0.138-0.301-0.149h-9.439c-0.074 0.007-0.148-0.002-0.218-0.025s-0.134-0.061-0.189-0.11-0.098-0.109-0.128-0.176c-0.030-0.067-0.045-0.139-0.045-0.212s0.015-0.145 0.045-0.212c0.030-0.067 0.073-0.127 0.128-0.176s0.119-0.087 0.189-0.11 0.144-0.032 0.218-0.025h0.974c0.116-0.011 0.223-0.064 0.301-0.149s0.122-0.196 0.122-0.311c0-0.115-0.043-0.226-0.122-0.311s-0.186-0.138-0.301-0.149h-0.858c-0.123-0.645-0.103-1.309 0.059-1.946s0.461-1.232 0.877-1.743c0.3 0.924 1.073 2.188 3.003 3.193 1.815 0.937 4.218 1.416 7.139 1.416h1.716c0.074-0.007 0.148 0.002 0.218 0.025s0.134 0.061 0.189 0.11c0.055 0.049 0.098 0.109 0.128 0.176s0.045 0.139 0.045 0.212c0 0.073-0.015 0.145-0.045 0.212s-0.073 0.127-0.128 0.176-0.119 0.087-0.189 0.11c-0.070 0.023-0.144 0.032-0.218 0.025h0.030z"></path>
<path fill="#f8d24e" style="fill: var(--color3, #f8d24e)" d="M19.817 27.915l-0.343 0.527 0.007 0.004 0.337-0.531zM23.514 28.093l0.629-0.014-0.016-0.728-0.718 0.122 0.105 0.62zM23.557 30.028l0.16 0.608 0.48-0.126-0.011-0.496-0.629 0.014zM18.705 30.12l0.141-0.613-0.004-0.001-0.137 0.614zM16.31 29.051l0.407-0.48-0.001-0.001-0.406 0.48zM15.444 27.086l0.629 0.003v-0.003h-0.629zM15.745 25.71l-0.564-0.278-0 0.001 0.565 0.277zM17.674 24.064l0.223 0.588 0.002-0.001-0.225-0.587zM23.852 23.905l0.627 0.049 0.041-0.531-0.517-0.128-0.151 0.61zM23.698 25.876l-0.117 0.618 0.69 0.131 0.055-0.7-0.627-0.049zM22.022 25.069c-0.944 0-1.737 0.101-2.317 0.356-0.297 0.131-0.567 0.314-0.764 0.574-0.203 0.268-0.3 0.58-0.3 0.909h1.258c0-0.074 0.018-0.115 0.044-0.149 0.033-0.043 0.106-0.111 0.268-0.182 0.338-0.148 0.92-0.249 1.81-0.249v-1.258zM18.642 26.908c0 0.647 0.29 1.181 0.832 1.534l0.687-1.054c-0.187-0.122-0.261-0.259-0.261-0.48h-1.258zM19.481 28.446c0.514 0.325 1.191 0.448 1.952 0.448v-1.258c-0.656 0-1.056-0.111-1.279-0.253l-0.673 1.063zM21.432 28.894c0.746 0 1.476-0.060 2.187-0.181l-0.21-1.24c-0.639 0.108-1.298 0.163-1.977 0.163v1.258zM22.885 28.107l0.043 1.934 1.257-0.028-0.043-1.934-1.257 0.028zM23.397 29.42c-0.719 0.189-1.512 0.286-2.383 0.286v1.258c0.964 0 1.866-0.108 2.703-0.328l-0.32-1.216zM21.015 29.706c-0.888 0-1.607-0.070-2.168-0.199l-0.282 1.226c0.684 0.157 1.504 0.231 2.45 0.231v-1.258zM18.843 29.506c-0.6-0.134-1.034-0.277-1.323-0.418l-0.552 1.13c0.415 0.203 0.956 0.371 1.6 0.515l0.275-1.227zM17.52 29.088c-0.31-0.151-0.576-0.324-0.803-0.516l-0.814 0.959c0.314 0.267 0.67 0.495 1.064 0.687l0.552-1.13zM16.716 28.571c-0.427-0.361-0.646-0.833-0.643-1.482l-1.258-0.006c-0.005 0.989 0.353 1.827 1.089 2.449l0.812-0.961zM16.073 27.086c0-0.423 0.083-0.785 0.237-1.099l-1.129-0.553c-0.247 0.505-0.365 1.060-0.365 1.652h1.258zM16.31 25.988c0.286-0.582 0.791-1.033 1.587-1.336l-0.446-1.176c-1.038 0.394-1.819 1.040-2.27 1.956l1.129 0.555zM17.899 24.652c0.837-0.321 1.77-0.486 2.808-0.486v-1.258c-1.173 0-2.262 0.187-3.259 0.57l0.451 1.174zM20.708 24.165c1.059 0 2.056 0.118 2.993 0.35l0.303-1.221c-1.044-0.259-2.143-0.387-3.296-0.387v1.258zM23.225 23.856l-0.154 1.971 1.254 0.098 0.154-1.971-1.254-0.098zM23.816 25.258c-0.654-0.124-1.254-0.189-1.794-0.189v1.258c0.442 0 0.961 0.054 1.56 0.167l0.234-1.236zM29.952 26.263l-0.003 0.629 0.639 0.004-0.007-0.639-0.629 0.007zM29.681 25.446l-0.428 0.461 0.005 0.005 0.422-0.466zM28.115 25.508l0.436 0.454 0.005-0.005-0.44-0.449zM27.735 26.251l-0.62-0.102-0.119 0.727 0.736 0.004 0.003-0.629zM32.359 29.604l0.38 0.501 0.226-0.171 0.021-0.283-0.627-0.047zM31.002 30.108l-0.135-0.614-0.004 0.001 0.139 0.613zM26.285 29.936l-0.214 0.591 0.005 0.002 0.209-0.593zM25.211 29.365l-0.39 0.493 0.008 0.006 0.383-0.499zM24.492 28.462l-0.564 0.279 0.001 0.003 0.563-0.281zM25.229 24.648l0.418 0.47 0-0-0.419-0.469zM30.977 23.966l0.252-0.576-0.006-0.003-0.246 0.579zM32.421 25.293l-0.566 0.275 0.002 0.004 0.564-0.278zM32.666 26.392l0.627 0.046 0.002-0.023v-0.023h-0.629zM32.593 27.405l-0.003 0.629 0.588 0.003 0.043-0.586-0.627-0.046zM27.612 27.381l0.003-0.629-0.82-0.004 0.209 0.793 0.608-0.16zM28.324 28.259l-0.309 0.547 0.003 0.001 0.307-0.549zM32.144 28.044v-0.629h-0.126l-0.116 0.048 0.242 0.581zM32.476 28.044l0.627 0.047 0.051-0.676h-0.678v0.629zM30.581 26.256c-0.005-0.455-0.109-0.943-0.477-1.276l-0.845 0.932c-0.007-0.007 0.007 0.001 0.025 0.056 0.019 0.058 0.037 0.154 0.039 0.302l1.258-0.013zM30.109 24.985c-0.33-0.306-0.763-0.408-1.189-0.408v1.258c0.245 0 0.32 0.059 0.334 0.071l0.856-0.922zM28.92 24.578c-0.468 0-0.904 0.147-1.245 0.481l0.88 0.898c0.069-0.067 0.169-0.121 0.364-0.121v-1.258zM27.68 25.054c-0.31 0.297-0.496 0.671-0.566 1.095l1.241 0.204c0.029-0.174 0.096-0.296 0.196-0.391l-0.871-0.907zM27.731 26.88l2.217 0.012 0.007-1.258-2.217-0.012-0.007 1.258zM31.979 29.103c-0.138 0.105-0.474 0.25-1.113 0.391l0.27 1.228c0.664-0.146 1.232-0.336 1.602-0.617l-0.76-1.002zM30.863 29.494c-0.609 0.138-1.195 0.206-1.759 0.206v1.258c0.665 0 1.344-0.080 2.037-0.237l-0.278-1.227zM29.104 29.7c-0.593 0-1.081-0.028-1.47-0.080l-0.168 1.247c0.462 0.062 1.010 0.092 1.638 0.092v-1.258zM27.634 29.619c-0.382-0.051-0.762-0.143-1.14-0.277l-0.419 1.186c0.457 0.161 0.921 0.274 1.391 0.337l0.168-1.247zM26.5 29.345c-0.368-0.133-0.667-0.295-0.906-0.479l-0.765 0.998c0.358 0.275 0.775 0.494 1.243 0.663l0.429-1.182zM25.601 28.871c-0.216-0.171-0.399-0.397-0.546-0.691l-1.125 0.563c0.221 0.443 0.517 0.819 0.891 1.115l0.781-0.986zM25.056 28.183c-0.132-0.268-0.211-0.612-0.211-1.054h-1.258c0 0.59 0.105 1.134 0.342 1.611l1.127-0.558zM24.844 27.129c0-0.442 0.080-0.833 0.231-1.181l-1.154-0.501c-0.226 0.521-0.334 1.084-0.334 1.681h1.258zM25.075 25.948c0.159-0.365 0.353-0.636 0.572-0.831l-0.836-0.939c-0.378 0.337-0.671 0.767-0.89 1.269l1.154 0.501zM25.647 25.117c0.676-0.603 1.707-0.952 3.193-0.952v-1.258c-1.667 0-3.043 0.392-4.030 1.271l0.837 0.939zM28.84 24.165c0.667 0 1.295 0.127 1.892 0.38l0.491-1.158c-0.755-0.32-1.551-0.48-2.383-0.48v1.258zM30.726 24.543c0.556 0.243 0.916 0.587 1.129 1.025l1.131-0.55c-0.36-0.741-0.963-1.281-1.757-1.628l-0.503 1.153zM31.857 25.571c0.117 0.238 0.181 0.508 0.181 0.821h1.258c0-0.489-0.101-0.952-0.311-1.378l-1.128 0.557zM32.039 26.346l-0.074 1.013 1.254 0.091 0.074-1.013-1.254-0.091zM32.596 26.777l-4.981-0.025-0.006 1.258 4.981 0.025 0.006-1.258zM27.004 27.541c0.147 0.558 0.507 0.98 1.011 1.265l0.619-1.095c-0.249-0.141-0.364-0.303-0.414-0.491l-1.216 0.321zM28.017 28.808c0.51 0.285 1.148 0.399 1.861 0.399v-1.258c-0.597 0-0.995-0.099-1.247-0.239l-0.614 1.098zM29.878 29.207c0.765 0 1.605-0.207 2.508-0.583l-0.483-1.161c-0.809 0.337-1.479 0.486-2.024 0.486v1.258zM32.144 28.673h0.332v-1.258h-0.332v1.258zM31.849 27.997l-0.117 1.56 1.254 0.094 0.117-1.56-1.254-0.094z"></path>
</symbol>
<symbol id="icon-Frame-button" width="12" height="12" viewBox="0 0 12 12" fill="none">
<path d="M4 2L8.95 6L4 10" stroke-width="2" stroke-linecap="round" stroke-linejoin="round"/>
</symbol>
<symbol id="git" viewBox="0 0 32 32"><path d="M16 0c-8.788 0-16 7.212-16 16 0 7.499 5.262 14.312 12.25 16v-5.293c-0.692 0.152-1.33 0.156-2.034-0.052-0.946-0.279-1.714-0.909-2.284-1.869-0.364-0.613-1.008-1.278-1.68-1.23l-0.165-1.868c1.453-0.124 2.711 0.886 3.457 2.14 0.332 0.558 0.713 0.884 1.203 1.029 0.473 0.14 0.982 0.072 1.574-0.137 0.149-1.186 0.692-1.63 1.102-2.255-4.167-0.622-5.828-2.833-6.488-4.579-0.874-2.317-0.405-5.212 1.14-7.041 0.030-0.036 0.084-0.129 0.063-0.194-0.708-2.139 0.155-3.909 0.187-4.097 0.817 0.242 0.95-0.243 3.551 1.337l0.449 0.27c0.188 0.112 0.129 0.048 0.317 0.034 1.086-0.295 2.23-0.458 3.358-0.472 1.136 0.015 2.273 0.178 3.404 0.484l0.145 0.015c-0.013-0.002 0.040-0.009 0.127-0.062 3.248-1.968 3.132-1.324 4.003-1.608 0.032 0.188 0.883 1.987 0.182 4.099-0.095 0.291 2.816 2.956 1.203 7.235-0.659 1.746-2.32 3.957-6.487 4.578 0.534 0.814 1.176 1.248 1.173 2.928v6.608c6.988-1.688 12.25-8.501 12.25-16 0-8.788-7.212-16-16-16z"></path></symbol>
<symbol id="telegram" viewBox="0 0 44 32"><path d="M17.343 21.048l-0.675 8.86c0.966 0 1.384-0.387 1.885-0.852l4.527-4.038 9.381 6.412c1.72 0.895 2.933 0.424 3.397-1.477l6.157-26.929 0.002-0.002c0.546-2.374-0.92-3.302-2.596-2.72l-36.194 12.933c-2.47 0.895-2.433 2.18-0.42 2.762l9.253 2.686 21.494-12.552c1.012-0.625 1.931-0.279 1.175 0.346l-17.386 14.57z"></path></symbol>
<symbol id="facebook" viewBox="0 0 16 32"><path d="M14.143 15.972h-4.034v14.865h-6.112v-14.865h-2.907v-5.224h2.907v-3.381c0-2.418 1.142-6.203 6.166-6.203l4.527 0.019v5.071h-3.285c-0.539 0-1.296 0.271-1.296 1.424v3.075h4.567l-0.534 5.219z"></path></symbol>
<symbol id="icon-Arrow-header" width="41" height="16" viewBox="0 0 41 16" fill="none">
<path d="M40.7071 8.70711C41.0976 8.31658 41.0976 7.68342 40.7071 7.29289L34.3431 0.928932C33.9526 0.538408 33.3195 0.538408 32.9289 0.928932C32.5384 1.31946 32.5384 1.95262 32.9289 2.34315L38.5858 8L32.9289 13.6569C32.5384 14.0474 32.5384 14.6805 32.9289 15.0711C33.3195 15.4616 33.9526 15.4616 34.3431 15.0711L40.7071 8.70711ZM0 9H40V7H0V9Z" fill="#FCFCFC"/>
</symbol>
</defs>
</svg>
